<svg xmlns="http://www.w3.org/2000/svg" viewBox="0 0 800 400" fill="none">
  <rect width="800" height="400" rx="12" fill="#F0FDFA"/>
  <rect x="200" y="80" width="400" height="240" rx="16" fill="#CCFBF1" stroke="#5EEAD4" stroke-width="2"/>
  <rect x="230" y="110" width="340" height="30" rx="6" fill="#99F6E4"/>
  <rect x="240" y="118" width="120" height="14" rx="3" fill="#0D9488"/>
  <rect x="230" y="155" width="160" height="20" rx="4" fill="#99F6E4"/>
  <rect x="400" y="155" width="170" height="20" rx="4" fill="#A7F3D0"/>
  <rect x="230" y="185" width="160" height="20" rx="4" fill="#99F6E4"/>
  <rect x="400" y="185" width="170" height="20" rx="4" fill="#A7F3D0"/>
  <rect x="230" y="215" width="160" height="20" rx="4" fill="#99F6E4"/>
  <rect x="400" y="215" width="170" height="20" rx="4" fill="#A7F3D0"/>
  <rect x="230" y="245" width="160" height="20" rx="4" fill="#99F6E4"/>
  <rect x="400" y="245" width="170" height="20" rx="4" fill="#A7F3D0"/>
  <rect x="230" y="280" width="340" height="24" rx="6" fill="#14B8A6"/>
  <text x="400" y="298" text-anchor="middle" font-family="system-ui" font-size="13" font-weight="600" fill="white">2.800 municípios em 2026</text>
  <text x="400" y="365" text-anchor="middle" font-family="system-ui" font-size="20" font-weight="700" fill="#0F766E">eSocial — Setor Público</text>
</svg>